<svg xmlns="http://www.w3.org/2000/svg" xmlns:xlink="http://www.w3.org/1999/xlink" width="450" height="556" fill="none" viewBox="0 0 450 556"><linearGradient id="a"><stop offset="0" stop-color="#f81"/><stop offset="1" stop-color="#f81" stop-opacity="0"/></linearGradient><linearGradient id="b" x1="-54.5" x2="222" y1="-178" y2="288" gradientUnits="userSpaceOnUse" xlink:href="#a"/><linearGradient id="c"><stop offset=".146" stop-color="#f81" stop-opacity="0"/><stop offset="1" stop-color="#f81" stop-opacity=".08"/></linearGradient><radialGradient id="d" cx="0" cy="0" r="1" gradientTransform="matrix(0 18 -18 0 17.9997 182)" gradientUnits="userSpaceOnUse" xlink:href="#c"/><radialGradient id="e" cx="0" cy="0" r="1" gradientTransform="matrix(0 34 -34 0 76.9997 288)" gradientUnits="userSpaceOnUse" xlink:href="#c"/><linearGradient id="f" x1="226.775" x2="292.157" y1="-66.155" y2="351.421" gradientUnits="userSpaceOnUse" xlink:href="#a"/><linearGradient id="g"><stop offset="0" stop-color="#f81"/><stop offset="1" stop-color="#fff" stop-opacity="0"/></linearGradient><linearGradient id="h" x1="184.521" x2="184.521" y1="182.159" y2="448.882" gradientUnits="userSpaceOnUse" xlink:href="#g"/><linearGradient id="i" x1="356" x2="356" y1="110" y2="470" gradientUnits="userSpaceOnUse" xlink:href="#g"/><linearGradient id="j" x1="118.524" x2="166.965" y1="29.25" y2="338.63" gradientUnits="userSpaceOnUse" xlink:href="#a"/><circle cx="277" cy="63" r="225" fill="url(#b)"/><circle cx="18" cy="182" r="18" fill="url(#d)"/><circle cx="77" cy="288" r="34" fill="url(#e)"/><circle cx="325.486" cy="302.87" r="180" fill="url(#f)" transform="matrix(.79138147 -.61132264 .61132264 .79138147 -117.248877 262.161255)"/><circle cx="184.521" cy="315.521" r="132.862" stroke="url(#h)" opacity=".8" transform="matrix(-.42062417 .90723498 -.90723498 -.42062417 548.38668 280.832852)"/><circle cx="356" cy="290" r="179.5" stroke="url(#i)" opacity=".8" transform="matrix(.8660254 -.5 .5 .8660254 -97.305044 216.852633)"/><circle cx="191.659" cy="302.659" r="133.362" fill="url(#j)" opacity=".8" transform="matrix(-.68605965 .72754529 -.72754529 -.68605965 543.346638 370.860526)"/></svg>