<svg xmlns="http://www.w3.org/2000/svg" xmlns:xlink="http://www.w3.org/1999/xlink" width="500" height="480" fill="none" viewBox="0 0 500 480"><filter id="a" width="72.882" height="72.882" x="344.368" y="140.412" color-interpolation-filters="sRGB" filterUnits="userSpaceOnUse"><feFlood flood-opacity="0" result="BackgroundImageFix"/><feBlend in="SourceGraphic" in2="BackgroundImageFix" mode="normal" result="shape"/><feGaussianBlur result="effect1_foregroundBlur_62:128" stdDeviation="10.5"/></filter><radialGradient id="b" cx="0" cy="0" r="1" gradientTransform="matrix(0 40.2574 -40.2574 0 377.5 194.5)" gradientUnits="userSpaceOnUse"><stop offset="0" stop-opacity=".47"/><stop offset="1" stop-opacity="0"/></radialGradient><linearGradient id="c"><stop offset="0" stop-color="#fff" stop-opacity=".48"/><stop offset="1" stop-color="#fff" stop-opacity="0"/></linearGradient><linearGradient id="d" x1="358.554" x2="242.956" y1="226.723" y2="282.349" gradientUnits="userSpaceOnUse" xlink:href="#c"/><linearGradient id="e" x1="343.992" x2="340.23" y1="228.548" y2="234.571" gradientUnits="userSpaceOnUse" xlink:href="#c"/><mask id="f" width="75" height="75" x="340" y="157" maskUnits="userSpaceOnUse"><circle cx="377.5" cy="194.5" r="37.5" fill="#f81" opacity=".8"/></mask><rect width="500" height="480" fill="#151a3e" rx="2"/><rect width="225" height="156" x="35" y="117" fill="#474c72" rx="2"/><path stroke="#fff" d="m35 80.5h430" opacity=".1"/><rect width="175" height="156" x="290" y="117" fill="#2c3151" rx="2"/><rect width="430" height="142" x="35" y="303" fill="#f81" opacity=".3" rx="2"/><rect width="229" height="8" x="194" y="353" fill="#fff" opacity=".5" rx="2"/><rect width="152" height="8" x="194" y="370" fill="#fff" opacity=".5" rx="2"/><rect width="187" height="8" x="194" y="387" fill="#fff" opacity=".5" rx="2"/><rect width="100" height="100" x="59" y="324" fill="#f81" fill-opacity=".73" rx="2"/><g fill="#fff"><rect width="327" height="18" x="138" y="35" opacity=".1" rx="2"/><circle cx="39.239" cy="44.239" r="4.239" opacity=".3"/><circle cx="54.5" cy="44.239" r="4.239" opacity=".3"/><circle cx="69.761" cy="44.239" r="4.239" opacity=".3"/></g><circle cx="377.5" cy="194.5" r="37.5" fill="#f81" opacity=".8"/><g mask="url(#f)"><circle cx="377.5" cy="194.5" r="37.5" fill="url(#b)" opacity=".8"/><g filter="url(#a)" opacity=".8"><circle cx="380.809" cy="176.853" r="15.441" fill="#fff"/></g></g><path stroke="url(#d)" stroke-dasharray="2 2" stroke-linecap="round" stroke-linejoin="round" d="m342.034 231.847c-17.07 30.902-64.095 81.339-115.64 35.871"/><path stroke="url(#e)" stroke-dasharray="2 2" stroke-linecap="round" stroke-linejoin="round" d="m339.077 230.867 4.896-1.896.589 4.685"/></svg>