<svg xmlns="http://www.w3.org/2000/svg" xmlns:xlink="http://www.w3.org/1999/xlink" width="474" height="210" fill="none" viewBox="0 0 474 210"><filter id="a" width="116.412" height="116.412" x="175.337" y="-8.941" color-interpolation-filters="sRGB" filterUnits="userSpaceOnUse"><feFlood flood-opacity="0" result="BackgroundImageFix"/><feBlend in="SourceGraphic" in2="BackgroundImageFix" mode="normal" result="shape"/><feGaussianBlur result="effect1_foregroundBlur_116:1137" stdDeviation="15"/></filter><linearGradient id="b"><stop offset="0" stop-color="#f81" stop-opacity="0"/><stop offset="1" stop-color="#f81"/></linearGradient><linearGradient id="c" x1="25" x2="126.155" y1="183" y2="27.084" gradientUnits="userSpaceOnUse" xlink:href="#b"/><linearGradient id="d" x1="307" x2="408.155" y1="153" y2="-2.916" gradientUnits="userSpaceOnUse" xlink:href="#b"/><radialGradient id="e" cx="0" cy="0" r="1" gradientTransform="matrix(0 73.5368 -73.5368 0 227.5 81.5)" gradientUnits="userSpaceOnUse"><stop offset="0" stop-opacity=".47"/><stop offset="1" stop-opacity="0"/></radialGradient><mask id="f" width="137" height="137" x="159" y="13" maskUnits="userSpaceOnUse"><circle cx="227.5" cy="81.5" r="68.5" fill="#f81" opacity=".8"/></mask><path stroke="url(#c)" stroke-width="3" d="m25 163.051h76.211v27.949h32.097v-27.949h19.692v-26.94h-19.692v-104.111h-42.0209l-66.2871 104.577zm76.831-26.94h-43.0285v-1.242l41.7885-66.2245h1.24z" opacity=".5"/><path stroke="url(#d)" stroke-width="3" d="m307 133.051h76.211v27.949h32.097v-27.949h19.692v-26.94h-19.692v-104.111h-42.021l-66.287 104.577zm76.831-26.94h-43.028v-1.242l41.788-66.2245h1.24z" opacity=".5"/><circle cx="227.5" cy="81.5" r="68.5" fill="#f81" opacity=".8"/><g mask="url(#f)"><circle cx="227.5" cy="81.5" r="68.5" fill="url(#e)" opacity=".8"/><g filter="url(#a)" opacity=".8"><circle cx="233.543" cy="49.264" r="28.206" fill="#fff"/></g></g><path stroke="#fff" stroke-opacity=".08" stroke-width="2" d="m0 182h83.5v27h67v-31h19v-29.5s24.5 16.5 60 16.5 64.5-30.5 64.5-30.5v17.5h12.5 54.5v26h74v-26h39"/></svg>